<?xml version="1.0" standalone="no"?>
<!DOCTYPE svg PUBLIC "-//W3C//DTD SVG 20010904//EN"
 "http://www.w3.org/TR/2001/REC-SVG-20010904/DTD/svg10.dtd">
<svg version="1.0" xmlns="http://www.w3.org/2000/svg"
 width="1480.000000pt" height="1480.000000pt" viewBox="0 0 1480.000000 1480.000000"
 preserveAspectRatio="xMidYMid meet">
<metadata>
Created by potrace 1.14, written by Peter Selinger 2001-2017
</metadata>
<g transform="translate(0.000000,1480.000000) scale(0.100000,-0.100000)"
fill="#000000" stroke="none">
<path d="M5850 9834 c-151 -119 -311 -243 -355 -277 -44 -33 -129 -99 -190
-147 -60 -47 -211 -164 -335 -260 -124 -95 -237 -185 -252 -199 l-28 -25 0
-722 c0 -398 4 -725 9 -728 4 -3 197 135 427 307 231 172 507 377 614 456 107
79 241 178 298 219 l102 76 0 758 c0 417 -3 758 -7 758 -5 -1 -132 -98 -283
-216z m-70 -320 c0 -34 -1 -35 -32 -32 -29 3 -33 7 -36 36 -3 31 -2 32 32 32
35 0 36 -1 36 -36z m263 -249 c4 -24 4 -58 1 -75 l-6 -30 -74 0 -74 0 0 75 0
75 74 0 73 0 6 -45z m-335 -192 l3 -73 -76 0 -75 0 0 75 0 76 73 -3 72 -3 3
-72z m-508 -263 l0 -101 -102 3 -103 3 -3 98 -3 97 106 0 105 0 0 -100z m360
-140 l0 -50 -50 0 -50 0 0 50 0 50 50 0 50 0 0 -50z m370 -65 l0 -75 -75 0
-75 0 0 68 c0 38 3 72 7 75 3 4 37 7 75 7 l68 0 0 -75z m-552 -177 l-3 -53
-44 -3 c-24 -2 -47 1 -50 7 -4 5 -5 30 -3 55 l4 46 50 0 49 0 -3 -52z"/>
<path d="M6300 9250 c0 -308 4 -560 8 -560 5 0 35 19 67 42 48 34 61 39 76 30
10 -7 101 -76 201 -155 101 -78 195 -151 209 -162 66 -49 291 -225 362 -282
44 -35 83 -63 88 -63 15 0 12 857 -3 867 -6 4 -221 114 -477 243 l-466 235 -3
183 -2 182 -30 0 -30 0 0 -560z m238 -78 l3 -63 -63 3 -63 3 -3 39 c-2 22 -1
50 3 63 5 22 10 24 63 21 l57 -3 3 -63z m508 -182 c10 0 14 -14 14 -50 l0 -50
-55 0 -55 0 0 49 c0 54 9 63 54 56 16 -3 35 -5 42 -5z m-258 -102 c3 -26 1
-28 -32 -28 -33 0 -36 2 -36 31 0 28 2 30 33 27 27 -2 33 -8 35 -30z m22 -178
c0 -27 -3 -30 -30 -30 -27 0 -30 3 -30 30 0 27 3 30 30 30 27 0 30 -3 30 -30z
m268 21 c9 -5 12 -26 10 -67 l-3 -59 -60 0 -60 0 -3 62 c-2 52 0 62 15 66 31
8 87 7 101 -2z"/>
<path d="M7470 8585 c0 -183 4 -285 10 -285 14 0 533 -190 542 -199 4 -3 10
-125 13 -271 3 -145 7 -265 8 -266 1 0 76 -59 167 -130 270 -212 330 -257 335
-252 6 6 8 829 2 835 -3 2 -32 1 -66 -3 l-61 -7 0 -82 c0 -95 -5 -100 -77 -89
l-43 6 0 263 0 263 -67 26 c-38 13 -143 53 -235 86 l-168 62 0 69 c0 57 -3 70
-19 79 -11 5 -22 10 -25 10 -3 0 -6 -75 -6 -166 l0 -166 -32 6 c-58 11 -58 13
-58 207 l0 179 -110 55 -110 55 0 -285z"/>
<path d="M6363 7735 l-71 -54 5 -1193 c2 -656 6 -1199 8 -1205 3 -10 56 -13
217 -13 117 -1 346 -7 508 -14 162 -8 298 -11 303 -7 4 4 6 428 5 942 l-3 934
-444 333 c-244 182 -446 332 -450 332 -3 0 -38 -25 -78 -55z"/>
<path d="M5397 7023 l-717 -538 0 -425 c0 -234 3 -523 7 -643 l6 -218 26 5
c108 23 736 62 1129 72 l282 7 0 1138 c0 627 -4 1139 -8 1139 -5 0 -331 -242
-725 -537z m68 -563 l0 -135 -135 0 -135 0 -3 124 c-1 69 0 131 2 138 4 11 35
13 138 11 l133 -3 0 -135z m345 0 l0 -140 -135 0 -135 0 0 133 c0 74 3 137 7
140 3 4 64 7 135 7 l128 0 0 -140z m-345 -350 l0 -135 -135 0 -135 0 -3 129
c-2 97 1 132 10 138 7 4 69 7 138 6 l125 -3 0 -135z m345 0 l0 -141 -132 3
-133 3 -3 124 c-1 69 0 131 2 138 4 10 38 13 136 13 l130 0 0 -140z"/>
<path d="M7440 6733 c0 -162 4 -283 9 -277 9 10 61 199 82 297 8 38 17 56 25
53 11 -4 230 -162 381 -276 l72 -54 6 -60 c4 -34 5 -313 3 -621 l-3 -560 -275
4 c-151 2 -271 0 -267 -5 4 -4 65 -16 135 -25 70 -10 208 -29 307 -43 99 -14
183 -22 187 -18 4 4 5 326 1 715 l-6 708 -256 176 c-141 97 -278 193 -306 213
-27 20 -60 42 -72 49 l-23 12 0 -288z"/>
<path d="M505 6569 c-293 -45 -445 -205 -448 -470 -1 -64 4 -86 26 -131 60
-123 191 -205 432 -273 243 -68 315 -95 356 -135 35 -33 39 -42 39 -86 0 -108
-67 -156 -228 -162 -145 -6 -264 19 -466 99 -54 21 -99 39 -101 39 -1 0 -26
-68 -55 -151 -33 -95 -49 -154 -43 -160 19 -19 201 -87 288 -107 241 -56 458
-52 650 13 114 39 240 146 285 242 48 102 46 259 -4 368 -35 78 -119 158 -208
200 -69 33 -215 76 -412 124 -158 38 -220 94 -196 180 36 134 269 144 605 27
l124 -43 46 145 c26 79 43 148 38 153 -16 16 -196 80 -296 105 -115 29 -326
40 -432 23z"/>
<path d="M3401 6565 c-289 -53 -431 -206 -431 -465 0 -72 4 -94 26 -138 58
-117 194 -201 429 -266 330 -92 395 -128 395 -222 0 -108 -67 -156 -228 -162
-146 -6 -297 27 -480 105 -45 20 -84 34 -86 32 -2 -2 -27 -71 -56 -152 -34
-94 -49 -152 -43 -158 18 -18 185 -81 280 -105 263 -66 535 -52 723 39 78 38
186 141 219 209 34 72 46 166 33 255 -37 234 -186 338 -619 432 -108 23 -197
63 -220 97 -20 31 -13 116 12 144 50 56 211 71 375 37 80 -17 274 -78 312 -98
14 -8 23 12 66 140 l50 149 -50 22 c-241 103 -501 142 -707 105z"/>
<path d="M9335 6574 c-168 -35 -245 -64 -350 -132 -332 -214 -454 -624 -290
-978 41 -91 94 -162 181 -244 86 -82 182 -139 304 -181 84 -28 111 -33 230
-37 154 -5 250 13 367 68 70 32 198 117 230 153 l21 22 -108 114 -108 115 -51
-47 c-98 -87 -201 -122 -344 -115 -107 5 -180 32 -261 95 -220 170 -235 540
-30 733 176 167 470 169 635 5 l46 -45 110 114 111 114 -37 35 c-96 93 -252
172 -393 201 -70 15 -213 20 -263 10z"/>
<path d="M12350 6573 c-254 -29 -423 -160 -465 -360 -29 -134 -12 -227 54
-311 77 -97 191 -153 476 -232 276 -76 340 -128 305 -249 -21 -76 -104 -111
-260 -111 -117 0 -246 30 -412 95 -62 25 -115 41 -119 37 -3 -4 -26 -65 -52
-137 -25 -71 -48 -137 -52 -146 -12 -31 188 -108 380 -146 141 -28 361 -23
488 10 53 14 125 41 159 59 80 42 165 127 203 203 28 57 30 67 30 180 0 114
-2 123 -32 187 -42 89 -109 155 -203 201 -75 36 -239 88 -341 107 -181 34
-279 90 -279 159 0 165 234 195 585 75 72 -24 134 -45 140 -47 5 -1 31 63 57
143 42 128 46 146 32 157 -30 22 -291 102 -384 118 -88 14 -226 17 -310 8z"/>
<path d="M1540 5785 l0 -755 403 0 c446 0 491 5 607 62 124 61 209 179 229
320 12 83 5 138 -25 207 -37 82 -125 170 -203 202 l-25 10 30 18 c77 48 136
151 142 250 11 165 -69 311 -210 382 -108 55 -147 59 -565 59 l-383 0 0 -755z
m720 440 c100 -59 97 -221 -4 -269 -27 -13 -68 -16 -195 -16 l-161 0 0 156 0
156 163 -4 c141 -3 166 -6 197 -23z m70 -581 c19 -11 45 -36 58 -55 20 -29 23
-44 20 -101 -3 -58 -8 -72 -33 -99 -51 -54 -75 -59 -285 -59 l-190 0 0 171 0
171 198 -4 c177 -3 201 -5 232 -24z"/>
<path d="M10502 5803 c-166 -406 -304 -746 -308 -755 -6 -17 7 -18 182 -18
l189 0 46 118 47 117 313 0 314 0 47 -115 46 -115 191 -3 190 -2 -35 82 c-19
46 -157 385 -308 753 l-274 670 -169 3 -169 2 -302 -737z m581 -35 l75 -188
-185 0 c-172 0 -185 1 -179 18 4 9 46 115 93 234 l86 217 17 -47 c10 -26 51
-131 93 -234z"/>
<path d="M13831 6518 c-27 -69 -603 -1473 -607 -1480 -3 -5 81 -7 186 -6 l192
3 46 115 47 115 314 0 313 0 47 -117 46 -118 189 0 c175 0 188 1 182 18 -4 9
-142 349 -308 755 l-302 737 -168 0 c-165 0 -169 0 -177 -22z m268 -701 c50
-125 91 -229 91 -232 0 -3 -83 -5 -184 -5 l-184 0 89 222 c49 122 89 229 89
237 0 8 2 12 4 10 2 -2 45 -106 95 -232z"/>
</g>
</svg>
